<?xml version="1.0" encoding="UTF-8" standalone="no"?>
<svg viewBox="0 0 320 306" xmlns="http://www.w3.org/2000/svg">
  <path fill="#2b1f65" d="M 50.911467,0.2734385 C 22.708018,0.2734385 0,22.986638 0,51.190106 V 167.54427 c 0,28.2035 22.708018,50.91145 50.911467,50.91145 h 7.270826 v 87.27084 L 138.73438,218.45572 H 269.08332 C 297.28674,218.45572 320,195.74777 320,167.54427 V 51.190106 C 320,22.986638 297.28674,0.2734385 269.08332,0.2734385 Z M 159.83852,137.73697 a 18.666667,18.666667 0 0 1 18.66667,18.66666 18.666667,18.666667 0 0 1 -18.66667,18.66667 18.666667,18.666667 0 0 1 -18.66666,-18.66667 18.666667,18.666667 0 0 1 18.66666,-18.66666 z m 53.33334,0 a 18.666667,18.666667 0 0 1 18.66666,18.66666 18.666667,18.666667 0 0 1 -18.66666,18.66667 18.666667,18.666667 0 0 1 -18.66667,-18.66667 18.666667,18.666667 0 0 1 18.66667,-18.66666 z m 53.33333,0 a 18.666667,18.666667 0 0 1 18.66667,18.66666 18.666667,18.666667 0 0 1 -18.66667,18.66667 18.666667,18.666667 0 0 1 -18.66667,-18.66667 18.666667,18.666667 0 0 1 18.66667,-18.66666 z" />
</svg>
